<?xml version="1.0" encoding="UTF-8"?>
<svg version="1.1" xmlns="http://www.w3.org/2000/svg" width="771" height="106">
<path d="M0 0 C1.24330078 -0.05607422 1.24330078 -0.05607422 2.51171875 -0.11328125 C9.13897083 0.89420895 13.39056368 5.02965589 17.6875 9.875 C18.39338257 10.66608154 18.39338257 10.66608154 19.11352539 11.47314453 C22.83492063 15.67676821 26.39634599 20.00701781 29.91796875 24.37890625 C33.22954552 28.43599296 36.64461105 32.40061051 40.06420898 36.36669922 C40.54317627 36.92244629 41.02214355 37.47819336 41.515625 38.05078125 C41.93489258 38.53587158 42.35416016 39.02096191 42.78613281 39.52075195 C44.98335183 42.09998906 47.14610573 44.70732217 49.3125 47.3125 C49.3218457 46.28890381 49.33119141 45.26530762 49.34082031 44.21069336 C49.38090168 40.38783353 49.44670892 36.56576322 49.52001953 32.7434082 C49.54812456 31.09377234 49.56939091 29.44400442 49.58349609 27.79418945 C49.60507233 25.41289175 49.65179245 23.03316412 49.703125 20.65234375 C49.70435364 19.92289047 49.70558228 19.19343719 49.70684814 18.44187927 C49.85959559 13.01790162 51.26000659 9.81081892 54.3125 5.3125 C59.04699552 0.92443098 62.75845957 -0.00016678 69.03515625 0.1015625 C73.93620197 0.55551871 76.65934461 2.65934461 80.0625 6.0625 C83.95651916 11.68719435 84.56317595 17.1363026 84.5871582 23.86499023 C84.59226913 24.58467987 84.59738007 25.30436951 84.60264587 26.04586792 C84.61644716 28.40436318 84.61559242 30.76256313 84.61328125 33.12109375 C84.61717317 34.77344367 84.62150886 36.4257926 84.62626648 38.07814026 C84.63370818 41.53365326 84.63345218 44.98906405 84.62817383 48.44458008 C84.6223796 52.85714211 84.6393189 57.26928433 84.6625185 61.681777 C84.6773 65.09200965 84.67812159 68.50214219 84.67500877 71.9124012 C84.67551969 73.53858332 84.68071403 75.16477137 84.69082069 76.79092216 C84.7909187 95.14630306 84.7909187 95.14630306 79.59375 101.37109375 C79.0059375 101.82613281 78.418125 102.28117187 77.8125 102.75 C77.2246875 103.22308594 76.636875 103.69617188 76.03125 104.18359375 C73.09403606 106.11280927 70.42722841 106.49146936 67 106.5625 C66.26136719 106.58828125 65.52273438 106.6140625 64.76171875 106.640625 C59.14000987 105.8874774 55.54288609 102.92501029 51.9375 98.75 C51.16148437 97.85410156 50.38546875 96.95820312 49.5859375 96.03515625 C46.88065438 92.79532406 44.22304993 89.52507731 41.609375 86.2109375 C38.19143952 81.89782845 34.70809604 77.63838112 31.23144531 73.37255859 C26.89390167 68.04407581 22.59856154 62.68245643 18.3125 57.3125 C18.3031543 58.4269751 18.29380859 59.5414502 18.28417969 60.68969727 C18.2441289 64.84797262 18.17832913 69.00551981 18.10498047 73.16333008 C18.07685799 74.95848189 18.05560025 76.75375552 18.04150391 78.54907227 C18.01995266 81.138814 17.97324277 83.72710457 17.921875 86.31640625 C17.92003204 87.50901817 17.92003204 87.50901817 17.91815186 88.72572327 C17.77240648 94.34499638 16.49418989 97.66063963 13.3125 102.3125 C9.08874256 105.92123494 3.93729649 106.97736016 -1.515625 106.6953125 C-6.65774989 105.78896675 -9.84846463 103.39441402 -13.0625 99.25 C-15.64733849 94.57740734 -15.84573226 90.75102108 -15.86450195 85.53979492 C-15.87107315 84.74920181 -15.87764435 83.9586087 -15.88441467 83.14405823 C-15.90412949 80.52702742 -15.91580588 77.91005394 -15.92578125 75.29296875 C-15.93189454 73.95132377 -15.93189454 73.95132377 -15.93813133 72.58257484 C-15.95898379 67.84891618 -15.97328938 63.11528644 -15.98266602 58.3815918 C-15.99373198 53.49561211 -16.02813631 48.61008766 -16.06783772 43.72426891 C-16.09399643 39.96412821 -16.10235716 36.20409614 -16.10594749 32.44387245 C-16.11081496 30.64296708 -16.12243354 28.84206662 -16.14098549 27.04125023 C-16.16536273 24.51826363 -16.16441488 21.99645726 -16.1574707 19.47338867 C-16.17028076 18.7329129 -16.18309082 17.99243713 -16.19628906 17.22952271 C-16.14509913 12.11427889 -14.88680466 9.26084522 -11.6875 5.3125 C-7.71446579 1.81244605 -5.2772779 0.1535502 0 0 Z " fill="#FDFDFD" transform="translate(276.6875,-0.3125)"/>
<path d="M0 0 C0.91499268 0.00757324 1.82998535 0.01514648 2.77270508 0.02294922 C17.63851934 0.38242615 29.7480846 6.1230025 40.5859375 16.17578125 C51.97886822 28.43694646 55.20628105 42.24955487 54.9609375 58.37109375 C54.41858652 72.9313382 46.44664693 84.48677581 36.15625 94.28125 C23.71597916 105.14680301 8.98971968 107.23581416 -6.96533203 106.61230469 C-19.52004056 105.67729623 -32.02084635 98.81339552 -40.50390625 89.66015625 C-51.11309171 76.62208599 -55.28231366 63.10392726 -54.3125 46.4375 C-52.08089677 32.21575736 -44.25739111 18.73193686 -32.60498047 10.18505859 C-22.41840755 3.41373502 -12.22746687 -0.14322402 0 0 Z M-13.0625 34 C-18.44286218 39.8287257 -20.6367591 45.63248133 -20.875 53.5625 C-20.52677802 61.80375363 -18.51325774 66.54570742 -12.6875 72.3125 C-8.255705 75.89740282 -4.01339833 77.38438604 1.6875 77.4375 C8.16955903 76.48425603 13.46993687 73.43083251 17.6875 68.4375 C21.81538437 62.17239739 22.68444144 55.80032793 21.6875 48.4375 C20.15129801 41.86063524 17.36622819 36.97987602 12.0234375 32.7890625 C3.2960246 27.73942226 -4.71386046 29.25645481 -13.0625 34 Z " fill="#E4EAEA" transform="translate(716.3125,-0.4375)"/>
<path d="M0 0 C0.68578125 0.47824219 1.3715625 0.95648438 2.078125 1.44921875 C11.92094659 9.14134507 18.9504054 21.78333743 21 34 C22.72108653 49.52624243 19.92290489 63.17987724 10.03125 75.63671875 C9.3609375 76.41660156 8.690625 77.19648437 8 78 C7.14921875 78.99966797 7.14921875 78.99966797 6.28125 80.01953125 C-2.3453519 89.35823473 -15.39817462 95.58809432 -28.08203125 96.2734375 C-46.16141387 96.82397149 -59.79304095 92.73383776 -73.25 80.1875 C-84.1751798 68.75570904 -88.54519687 54.73684991 -88.28515625 39.21875 C-88.00923285 33.11793119 -86.24161865 27.64700447 -84 22 C-83.72285156 21.26394531 -83.44570312 20.52789063 -83.16015625 19.76953125 C-80.45393383 13.52152464 -75.71982283 8.80064172 -71 4 C-70.4328125 3.41992188 -69.865625 2.83984375 -69.28125 2.2421875 C-50.62421309 -15.22592058 -19.9875432 -14.16358665 0 0 Z M-46.8125 23.75 C-52.03912202 29.12595408 -54.8266365 35.6835193 -55.0703125 43.15625 C-54.64626783 50.24029033 -52.17920754 57.0085171 -46.94921875 61.9296875 C-42.29088794 65.29269661 -37.82313412 67.47968346 -32 67 C-25.91554307 65.80595128 -21.33100323 63.53244524 -17 59 C-12.47368573 51.58670963 -10.67991594 44.74952276 -12.6484375 36.17578125 C-14.68464214 29.79741373 -17.1000544 25.38125537 -23 22 C-31.7722035 18.17584473 -38.60716107 18.64445578 -46.8125 23.75 Z " fill="#E4EAEA" transform="translate(213,10)"/>
<path d="M0 0 C3.77702297 2.63513231 6.60374735 5.7074947 8.6875 9.875 C8.77260205 11.8343604 8.79467656 13.79662794 8.78515625 15.7578125 C8.78265869 16.80855957 8.78016113 17.85930664 8.77758789 18.94189453 C8.76848389 20.28106934 8.75937988 21.62024414 8.75 23 C8.729375 27.24875 8.70875 31.4975 8.6875 35.875 C18.9175 35.875 29.1475 35.875 39.6875 35.875 C39.60899768 29.6531355 39.60899768 29.6531355 39.50732422 23.43164062 C39.46363587 16.50351426 39.6045763 9.36894328 44.5625 4 C45.05492188 3.44570312 45.54734375 2.89140625 46.0546875 2.3203125 C50.17875791 -1.33018045 53.89398479 -1.50411492 59.22265625 -1.37109375 C64.24868506 -0.86928739 67.29348054 1.21174301 70.5 4.9375 C73.80298255 9.37293371 73.84565917 12.32514808 73.86450195 17.7019043 C73.87107315 18.51025223 73.87764435 19.31860016 73.88441467 20.15144348 C73.90416881 22.83403614 73.91581654 25.5165727 73.92578125 28.19921875 C73.92985678 29.11538279 73.9339323 30.03154682 73.93813133 30.9754734 C73.95900366 35.82698975 73.97329888 40.67847774 73.98266602 45.5300293 C73.99371736 50.53588229 74.02809915 55.54128915 74.06783772 60.54698467 C74.09401827 64.39981396 74.10235926 68.25253735 74.10594749 72.10544777 C74.11081176 73.95018327 74.1224212 75.7949141 74.14098549 77.63956261 C74.16540197 80.22710541 74.16440726 82.81349968 74.1574707 85.40112305 C74.17028076 86.15827606 74.18309082 86.91542908 74.19628906 87.69552612 C74.14298258 93.17310567 72.8149252 96.35791215 69.6875 100.875 C64.71868093 104.82977436 60.65185079 105.52231807 54.33984375 105.25390625 C48.96876651 104.4866095 45.92597068 102.44032022 42.51171875 98.125 C39.38744498 92.4136815 40.27322877 85.74413409 40.4375 79.4375 C40.52 74.961875 40.6025 70.48625 40.6875 65.875 C30.1275 65.875 19.5675 65.875 8.6875 65.875 C8.84523628 74.82007629 8.84523628 74.82007629 9.04785156 83.76416016 C9.14976684 95.20990285 9.14976684 95.20990285 4.6875 99.875 C-0.5385477 104.47889916 -3.6199573 105.2382859 -10.484375 105.1484375 C-14.86511717 104.72488508 -16.84881339 103.63181179 -20.3125 100.875 C-23.96801708 95.57949152 -24.89877951 91.83816644 -24.83007812 85.48046875 C-24.8370874 84.67139069 -24.84409668 83.86231262 -24.85131836 83.02871704 C-24.86882258 80.37295493 -24.85730304 77.71827162 -24.84375 75.0625 C-24.8464471 73.20597124 -24.85033134 71.34944386 -24.85534668 69.49291992 C-24.86123146 65.60940042 -24.85271175 61.72624991 -24.83398438 57.84277344 C-24.8111954 52.87620164 -24.82432397 47.91049458 -24.84827423 42.94395447 C-24.86275985 39.11252379 -24.85811357 35.28129658 -24.84776306 31.44985962 C-24.84510341 29.61910905 -24.84833863 27.78833974 -24.85768127 25.95761108 C-24.86789265 23.39442329 -24.85228288 20.83261673 -24.83007812 18.26953125 C-24.83817505 17.52023346 -24.84627197 16.77093567 -24.85461426 15.99893188 C-24.76772363 10.55794957 -23.4167697 7.3638311 -20.3125 2.875 C-14.0200803 -2.03308737 -7.53271481 -2.5582805 0 0 Z " fill="#FEFEFE" transform="translate(24.3125,1.125)"/>
<path d="M0 0 C0.82193344 -0.00960754 1.64386688 -0.01921509 2.4907074 -0.02911377 C3.3781514 -0.03336365 4.2655954 -0.03761353 5.17993164 -0.04199219 C6.56251915 -0.0505423 6.56251915 -0.0505423 7.97303772 -0.05926514 C9.92911635 -0.06871743 11.88521092 -0.07525003 13.84130859 -0.07910156 C16.79757674 -0.08872875 19.75312588 -0.11971674 22.70922852 -0.15136719 C37.29771864 -0.23439149 50.64319119 0.08816692 61.64868164 10.87207031 C67.51395794 17.80509018 70.74700723 27.84307166 70.21508789 36.91894531 C68.62402777 48.33480166 64.01772558 55.18867886 55.90258789 63.16113281 C56.25562988 63.6499292 56.60867188 64.13872559 56.97241211 64.64233398 C58.57957053 66.87391124 60.17862239 69.1111788 61.77758789 71.34863281 C62.33317383 72.11755859 62.88875977 72.88648437 63.46118164 73.67871094 C67.4628799 79.29555248 70.48495964 83.86448895 70.28149414 91.04003906 C69.33877004 96.31735025 66.05857322 100.0601944 62.27758789 103.66113281 C57.51151344 105.77938812 53.03223108 106.10771554 47.90258789 105.16113281 C42.41328382 102.61554345 39.6585218 100.12015566 36.21508789 95.03613281 C35.80790527 94.44300293 35.40072266 93.84987305 34.98120117 93.23876953 C33.60518441 91.22353748 32.25330321 89.19340173 30.90258789 87.16113281 C29.80013007 85.52023445 28.69724946 83.87962008 27.59399414 82.23925781 C24.67837554 77.89202575 21.78370275 73.53129616 18.90258789 69.16113281 C18.88800537 69.71986084 18.87342285 70.27858887 18.85839844 70.85424805 C18.78297991 73.43633334 18.68663909 76.01725465 18.59008789 78.59863281 C18.5675293 79.47712891 18.5449707 80.355625 18.52172852 81.26074219 C18.22338103 88.61093945 17.26292329 95.31662604 12.46508789 101.09863281 C7.78188337 104.86804133 4.38304712 105.61372832 -1.56225586 105.47363281 C-5.67907894 104.96616618 -7.77668228 103.68488749 -11.09741211 101.16113281 C-15.37401632 95.64656423 -16.24794251 91.47941752 -16.25854492 84.6796875 C-16.26350983 83.9199614 -16.26847473 83.16023529 -16.27359009 82.37748718 C-16.288201 79.86265151 -16.29501268 77.34787897 -16.30053711 74.83300781 C-16.3062904 73.08286538 -16.31204811 71.33272297 -16.31781006 69.58258057 C-16.32831766 65.91068224 -16.33416159 62.23880578 -16.33764648 58.56689453 C-16.3431241 53.87166191 -16.36713741 49.17672032 -16.39561844 44.48157883 C-16.41428463 40.86465626 -16.41945258 37.24780315 -16.42098236 33.63083649 C-16.42400153 31.90054995 -16.43200514 30.17026443 -16.44516754 28.44002533 C-16.46230807 26.01318038 -16.4603283 23.58703792 -16.45385742 21.16015625 C-16.4630722 20.45132797 -16.47228699 19.74249969 -16.48178101 19.01219177 C-16.43574 13.47315935 -15.2790983 8.69507042 -11.59741211 4.41894531 C-7.67500793 1.45671299 -4.89083156 0.04631489 0 0 Z M17.90258789 30.16113281 C17.90258789 33.79113281 17.90258789 37.42113281 17.90258789 41.16113281 C20.15152743 41.26937054 22.40196364 41.34682926 24.65258789 41.41113281 C26.53204102 41.48074219 26.53204102 41.48074219 28.44946289 41.55175781 C31.94339544 41.44737294 31.94339544 41.44737294 34.36743164 39.34472656 C36.23477807 37.16989034 36.23477807 37.16989034 35.71508789 33.97363281 C35.18218148 31.27970062 35.18218148 31.27970062 33.90258789 30.16113281 C31.20603936 30.0879366 28.53567331 30.06870744 25.84008789 30.09863281 C24.70216797 30.10540039 24.70216797 30.10540039 23.54125977 30.11230469 C21.66166918 30.12412601 19.7821189 30.14206204 17.90258789 30.16113281 Z " fill="#EDF1F1" transform="translate(506.097412109375,0.8388671875)"/>
<path d="M0 0 C1.25858322 -0.01283524 2.51716644 -0.02567047 3.81388855 -0.03889465 C5.19533901 -0.04706405 6.57679393 -0.0545074 7.95825195 -0.0612793 C8.65376474 -0.06535482 9.34927753 -0.06943035 10.06586647 -0.07362938 C13.75028817 -0.09449631 17.4346726 -0.1087928 21.11914062 -0.11816406 C24.91437538 -0.12920349 28.70901975 -0.16357203 32.50404644 -0.20333576 C35.43041527 -0.22956352 38.3566451 -0.23786151 41.28312111 -0.24144554 C42.68129252 -0.24629913 44.07945823 -0.25787811 45.47751427 -0.27648354 C59.05475117 -0.44587448 59.05475117 -0.44587448 65.0090332 4.17700195 C68.65960439 8.06309387 68.50851547 12.42151032 68.36450195 17.5168457 C67.73689095 22.21358296 65.42848317 24.8491294 62.0715332 27.98950195 C57.87517065 30.40558948 53.43715365 30.29159668 48.6965332 30.23950195 C47.09358398 30.2259668 47.09358398 30.2259668 45.45825195 30.2121582 C44.65000977 30.20055664 43.84176758 30.18895508 43.0090332 30.17700195 C43.01569504 30.89617294 43.02235687 31.61534393 43.02922058 32.35630798 C43.08958162 39.16702787 43.13513385 45.97770725 43.16446972 52.78862667 C43.1800592 56.28937726 43.20117261 59.78990498 43.23535156 63.29052734 C43.27448526 67.32432066 43.28879783 71.35788352 43.30200195 75.3918457 C43.31748581 76.63594711 43.33296967 77.88004852 43.34892273 79.16184998 C43.35050267 87.39329731 42.94876663 94.54101587 37.6340332 101.11450195 C33.04497073 104.7201939 29.12804224 105.69470417 23.35668945 105.55981445 C18.11074385 104.70440236 14.2230012 101.78257252 11.0715332 97.61450195 C9.20021225 93.32147154 8.88598638 89.71603718 8.89550781 85.03149414 C8.89558334 83.79050964 8.89565887 82.54952515 8.89573669 81.27093506 C8.90084289 79.92191528 8.90605888 78.57289591 8.91137695 77.22387695 C8.91324296 75.83953909 8.914666 74.45520057 8.91566467 73.07086182 C8.91947547 69.43438888 8.92929345 65.79795613 8.94036865 62.16149902 C8.9506137 58.4479222 8.95516892 54.73433885 8.96020508 51.02075195 C8.97091705 43.73948367 8.98797617 36.45824845 9.0090332 29.17700195 C7.47182617 29.22920898 7.47182617 29.22920898 5.90356445 29.2824707 C4.54290384 29.3106223 3.1822254 29.33792099 1.8215332 29.36450195 C1.14799805 29.38963867 0.47446289 29.41477539 -0.21948242 29.44067383 C-6.07285907 29.526333 -9.07150547 27.98982654 -13.2409668 24.05200195 C-15.62679262 20.13243096 -16.18664233 16.74015548 -15.9909668 12.17700195 C-14.44229488 6.9287249 -12.5337246 4.20550716 -7.9909668 1.17700195 C-5.2575327 -0.1897151 -3.05984445 0.02710256 0 0 Z " fill="#FEFEFE" transform="translate(398.990966796875,0.822998046875)"/>
<path d="M0 0 C5.39616657 3.55656433 7.90321136 6.27643436 9.36663055 12.66275024 C9.94721954 15.91841145 10.00465898 19.08327905 10.00878906 22.38671875 C10.0122937 23.09680084 10.01579834 23.80688293 10.01940918 24.53848267 C10.02812962 26.85909129 10.02241202 29.17938889 10.015625 31.5 C10.01697444 33.12849994 10.01891729 34.75699948 10.02142334 36.38549805 C10.02436148 39.78796244 10.02011929 43.19032137 10.01074219 46.59277344 C9.99934843 50.93684791 10.00591494 55.28067518 10.01788712 59.6247406 C10.0251412 62.98435299 10.02280154 66.34390752 10.01763153 69.70352173 C10.01630484 71.30457591 10.0179081 72.90563547 10.02259064 74.50668335 C10.02771458 76.75068928 10.0198643 78.99430417 10.00878906 81.23828125 C10.00719788 82.51098877 10.00560669 83.78369629 10.00396729 85.0949707 C9.56440385 91.52922442 8.53658229 97.15887833 3.75 101.8125 C-1.33629939 105.32446862 -6.27238499 105.5146016 -12.25 104.8125 C-17.53097404 103.01896165 -20.04895251 100.20250798 -23.25 95.8125 C-24.46284225 92.17397326 -24.40545984 88.82842309 -24.41113281 85.03979492 C-24.41609772 84.24920181 -24.42106262 83.4586087 -24.42617798 82.64405823 C-24.44078981 80.02701956 -24.4476002 77.41004152 -24.453125 74.79296875 C-24.45887756 72.97316995 -24.46463528 71.15337116 -24.47039795 69.33357239 C-24.48090535 65.51624265 -24.48674963 61.69893396 -24.49023438 57.8815918 C-24.4957165 52.99569534 -24.5197396 48.11007792 -24.54820633 43.22426891 C-24.5668522 39.46412856 -24.57203936 35.70405513 -24.57357025 31.94387245 C-24.57659324 30.14298287 -24.58460985 28.34209437 -24.59775543 26.54125023 C-24.6148557 24.01841533 -24.61292604 21.4962584 -24.60644531 18.97338867 C-24.6156601 18.2329129 -24.62487488 17.49243713 -24.6343689 16.72952271 C-24.59102636 11.32937985 -23.43145469 7.20414694 -19.75 3.16796875 C-13.55842307 -1.65307683 -7.42333612 -2.71237281 0 0 Z " fill="#D1DADB" transform="translate(626.25,1.1875)"/>
<path d="M0 0 C0.82193344 -0.00960754 1.64386688 -0.01921509 2.4907074 -0.02911377 C3.3781514 -0.03336365 4.2655954 -0.03761353 5.17993164 -0.04199219 C6.56251915 -0.0505423 6.56251915 -0.0505423 7.97303772 -0.05926514 C9.92911635 -0.06871743 11.88521092 -0.07525003 13.84130859 -0.07910156 C16.79757674 -0.08872875 19.75312588 -0.11971674 22.70922852 -0.15136719 C37.29771864 -0.23439149 50.64319119 0.08816692 61.64868164 10.87207031 C67.52905028 17.82293001 70.68909882 27.80591415 70.23461914 36.89550781 C69.38791944 42.67298811 68.1581411 48.27780301 64.90258789 53.16113281 C64.24258789 53.16113281 63.58258789 53.16113281 62.90258789 53.16113281 C62.5996582 52.49726562 62.29672852 51.83339844 61.98461914 51.14941406 C59.53089415 45.97771677 57.33337619 41.92730287 52.90258789 38.16113281 C51.81977539 37.14019531 51.81977539 37.14019531 50.71508789 36.09863281 C42.75582611 30.61558581 34.81311193 29.53074253 25.33227539 29.33300781 C24.17003448 29.29427551 23.00779358 29.25554321 21.81033325 29.21563721 C18.13304107 29.09699392 14.45562035 29.00366193 10.77758789 28.91113281 C8.26972369 28.83468539 5.76190954 28.75657691 3.25415039 28.67675781 C-2.86258965 28.48567259 -8.97963635 28.3153084 -15.09741211 28.16113281 C-15.42741211 28.82113281 -15.75741211 29.48113281 -16.09741211 30.16113281 C-16.1790537 27.47300792 -16.23820879 24.78740981 -16.28491211 22.09863281 C-16.32261719 20.97038086 -16.32261719 20.97038086 -16.36108398 19.81933594 C-16.43822841 13.87921514 -15.61258177 9.08239758 -11.59741211 4.41894531 C-7.67500793 1.45671299 -4.89083156 0.04631489 0 0 Z " fill="#FEFEFE" transform="translate(506.097412109375,0.8388671875)"/>
<path d="M0 0 C4.84937209 3.30639006 7.85496057 6.97580399 9.36386108 12.68600464 C10.19444598 17.39453416 10.05471552 22.17422602 10.05078125 26.94140625 C10.05506638 28.09366196 10.0593515 29.24591766 10.06376648 30.43309021 C10.06949262 32.8612299 10.07002274 35.28938675 10.06567383 37.7175293 C10.06250766 41.42851964 10.08601709 45.13871709 10.11132812 48.84960938 C10.11360068 51.21354066 10.11430482 53.57747409 10.11328125 55.94140625 C10.122491 57.04778946 10.13170074 58.15417267 10.14118958 59.29408264 C10.10766165 64.8816456 9.99620848 69.09114004 6.75 73.875 C4.34788533 75.78012543 3.07791029 75.8787422 0.01171875 75.84375 C-4.65652258 74.45725437 -6.63369123 71.64773443 -9.625 67.9375 C-10.1509375 67.31037109 -10.676875 66.68324219 -11.21875 66.03710938 C-12.32314382 64.71263708 -13.40641223 63.37033505 -14.47070312 62.01342773 C-16.23009567 59.81099383 -16.23009567 59.81099383 -18.41992188 57.83227539 C-24.47500391 51.68502155 -25.14602525 46.33516137 -25.18338013 38.06660461 C-25.15990183 36.32501746 -25.12298143 34.58356435 -25.07324219 32.8425293 C-24.99984498 30.18188049 -24.99120709 27.52679421 -24.9921875 24.86523438 C-24.9725316 23.15620232 -24.9492203 21.44720756 -24.921875 19.73828125 C-24.91742371 18.9527034 -24.91297241 18.16712555 -24.90838623 17.35774231 C-24.7186094 11.79516161 -23.40163543 8.47930833 -20.25 3.875 C-14.26807133 -1.66922657 -7.65443831 -2.64961326 0 0 Z " fill="#DDE4E5" transform="translate(351.25,1.125)"/>
<path d="M0 0 C10.12916336 1.9111629 17.94437041 15.25840426 23.45019531 23.28320312 C24.78051781 26.89601552 24.52167646 30.50629563 24.4296875 34.30078125 C24.41414825 35.1441655 24.39860901 35.98754974 24.38259888 36.85649109 C24.34583206 38.63939348 24.30345235 40.42218774 24.25585938 42.20483398 C24.18800752 44.91721177 24.15168812 47.6288161 24.1171875 50.34179688 C24.07745374 52.07817031 24.03584734 53.8145021 23.9921875 55.55078125 C23.98468475 56.35518143 23.97718201 57.1595816 23.9694519 57.98835754 C23.77765465 63.61147073 22.49628958 66.96769933 19.3125 71.625 C15.08874256 75.23373494 9.93729649 76.28986016 4.484375 76.0078125 C-0.65774989 75.10146675 -3.84846463 72.70691402 -7.0625 68.5625 C-9.21589234 64.66982924 -9.81748382 61.89315173 -9.86450195 57.5144043 C-9.87733719 56.47289719 -9.89017242 55.43139008 -9.90339661 54.35832214 C-9.91078354 53.23331802 -9.91817047 52.1083139 -9.92578125 50.94921875 C-9.933853 49.79130325 -9.94192474 48.63338776 -9.95024109 47.44038391 C-9.96407855 44.98834734 -9.97480221 42.53629153 -9.98266602 40.08422852 C-9.99988427 36.33768178 -10.04377576 32.59201614 -10.08789062 28.84570312 C-10.09801714 26.46354816 -10.10653337 24.08138569 -10.11328125 21.69921875 C-10.13078934 20.58028732 -10.14829742 19.4613559 -10.16633606 18.30851746 C-10.14895909 12.06611791 -9.84045518 8.38945137 -5.6875 3.625 C-5.006875 2.696875 -5.006875 2.696875 -4.3125 1.75 C-2.6875 0.625 -2.6875 0.625 0 0 Z " fill="#C7D2D3" transform="translate(270.6875,30.375)"/>
<path d="M0 0 C10.32748504 0.72005381 18.55867821 3.38955726 26 11 C33.62799299 22.34327428 33.62799299 22.34327428 33 29 C30.93872334 33.78216186 28.96516488 36.93343422 24.12109375 39.33984375 C18.53995973 41.07688178 12.34772679 41.06306428 7.0625 38.4375 C3.53516297 35.63002767 1.41293808 33.25346502 0 29 C-0.48241398 24.01554914 -0.37813383 19.06153246 -0.25 14.0625 C-0.22990673 12.69729179 -0.21166094 11.33205507 -0.1953125 9.96679688 C-0.14834433 6.64379866 -0.08266726 3.32227008 0 0 Z " fill="#BAC8CA" transform="translate(65,66)"/>
<path d="M0 0 C3.77702297 2.63513231 6.60374735 5.7074947 8.6875 9.875 C8.77277628 11.90732634 8.79466135 13.94247006 8.78515625 15.9765625 C8.78193359 17.18828125 8.77871094 18.4 8.77539062 19.6484375 C8.76282227 21.55496094 8.76282227 21.55496094 8.75 23.5 C8.74548828 24.77875 8.74097656 26.0575 8.73632812 27.375 C8.72451203 30.54171292 8.70803815 33.70833356 8.6875 36.875 C-1.51568061 36.13909808 -10.81238777 32.71441011 -17.8359375 24.9296875 C-21.39355347 19.97914253 -24.62776017 14.71234152 -23.9375 8.5 C-18.20815477 -0.75509613 -10.24202084 -3.47842217 0 0 Z " fill="#BECBCC" transform="translate(24.3125,1.125)"/>
<path d="M0 0 C1.32114304 0.0001133 1.32114304 0.0001133 2.66897583 0.00022888 C3.62109955 0.00539017 4.57322327 0.01055145 5.55419922 0.01586914 C7.01489334 0.01799156 7.01489334 0.01799156 8.50509644 0.02015686 C11.62305745 0.02576566 14.74094732 0.03831966 17.85888672 0.05102539 C19.96956277 0.05603926 22.08023994 0.06060236 24.19091797 0.06469727 C29.37193193 0.07573794 34.55290424 0.09248466 39.73388672 0.11352539 C39.73388672 0.44352539 39.73388672 0.77352539 39.73388672 1.11352539 C38.00138672 1.48477539 38.00138672 1.48477539 36.23388672 1.86352539 C27.64905233 4.03632418 22.19086446 7.84314112 16.60888672 14.73852539 C14.06583278 19.31602249 12.92563404 24.0395709 11.73388672 29.11352539 C9.17074173 29.19484726 6.61020254 29.25416714 4.04638672 29.30102539 C3.32515625 29.32616211 2.60392578 29.35129883 1.86083984 29.37719727 C-4.17743578 29.45991337 -7.21154987 28.05394639 -11.51611328 23.98852539 C-13.9019391 20.0689544 -14.46178882 16.67667892 -14.26611328 12.11352539 C-12.71744136 6.86524833 -10.80887109 4.14203059 -6.26611328 1.11352539 C-3.93601349 -0.05152451 -2.59364251 -0.00741041 0 0 Z " fill="#CED8D9" transform="translate(397.26611328125,0.886474609375)"/>
<path d="M0 0 C4.05933772 2.67547259 7.18845615 5.12786845 8.75 9.8125 C9.02063463 15.22519268 8.86152922 19.72563416 6.75 24.8125 C2.29717374 29.26532626 -1.43477336 31.55657031 -7.6875 32.125 C-14.1501119 31.55810422 -18.08844035 28.66765292 -22.25 23.8125 C-24.58810542 19.69298093 -24.82578966 15.45537538 -24.25 10.8125 C-22.39143173 5.54655656 -19.64685804 3.01854232 -15.25 -0.1875 C-10.07304236 -1.91315255 -5.12711982 -1.8733707 0 0 Z " fill="#FDFDFD" transform="translate(626.25,1.1875)"/>
<path d="M0 0 C10.89 0 21.78 0 33 0 C33 2.97 33 5.94 33 9 C32 10 32 10 28.85717773 10.11352539 C27.46597303 10.11336633 26.07476239 10.10767506 24.68359375 10.09765625 C23.95253922 10.0962413 23.22148468 10.09482635 22.46827698 10.09336853 C20.12464368 10.08775408 17.78110461 10.07519922 15.4375 10.0625 C13.85221492 10.05748686 12.26692834 10.05292363 10.68164062 10.04882812 C6.7877239 10.03777997 2.89387795 10.02050572 -1 10 C-1.125 2.25 -1.125 2.25 0 0 Z " fill="#B6C5C7" transform="translate(491,33)"/>
<path d="M0 0 C17.36315158 -0.10516258 34.66556236 -0.16674099 52 1 C52.495 5.455 52.495 5.455 53 10 C52.01 10.66 51.02 11.32 50 12 C50.020625 10.88625 50.04125 9.7725 50.0625 8.625 C50.26380718 5.16784079 50.26380718 5.16784079 49 3 C46.28553021 2.68758545 43.66090639 2.48663408 40.9375 2.375 C39.79958008 2.31699219 39.79958008 2.31699219 38.63867188 2.2578125 C36.75952805 2.16326438 34.87979664 2.08053244 33 2 C33 2.66 33 3.32 33 4 C22.11 4 11.22 4 0 4 C-0.33 4.66 -0.66 5.32 -1 6 C-0.67 4.02 -0.34 2.04 0 0 Z " fill="#E1E7E8" transform="translate(491,29)"/>
<path d="M0 0 C10.56 0 21.12 0 32 0 C32 1.65 32 3.3 32 5 C21.44 5 10.88 5 0 5 C0 3.35 0 1.7 0 0 Z " fill="#7E999C" transform="translate(491,37)"/>
<path d="M0 0 C6.27 0 12.54 0 19 0 C19.33 2.97 19.66 5.94 20 9 C19.01 9.66 18.02 10.32 17 11 C17.020625 9.88625 17.04125 8.7725 17.0625 7.625 C17.26380718 4.16784079 17.26380718 4.16784079 16 2 C13.28553021 1.68758545 10.66090639 1.48663408 7.9375 1.375 C6.79958008 1.31699219 6.79958008 1.31699219 5.63867188 1.2578125 C3.75952805 1.16326438 1.87979664 1.08053244 0 1 C0 0.67 0 0.34 0 0 Z " fill="#E5E7E7" transform="translate(524,30)"/>
<path d="M0 0 C0.33 0 0.66 0 1 0 C0.25 7.625 0.25 7.625 -2 11 C-4.125 12.1875 -4.125 12.1875 -6 13 C-5.71382812 12.43796875 -5.42765625 11.8759375 -5.1328125 11.296875 C-3.98584069 8.97129077 -2.92160206 6.62229799 -1.875 4.25 C-1.52179687 3.45078125 -1.16859375 2.6515625 -0.8046875 1.828125 C-0.53914062 1.22484375 -0.27359375 0.6215625 0 0 Z " fill="#B5C4C6" transform="translate(737,59)"/>
<path d="M0 0 C0.99 0 1.98 0 3 0 C2.35455571 3.48539917 0.89865603 6.02819057 -1 9 C-2.25541557 5.23375329 -1.37061958 3.62811066 0 0 Z " fill="#AEBDBF" transform="translate(161,35)"/>
<path d="M0 0 C0.66 0 1.32 0 2 0 C2.33 2.64 2.66 5.28 3 8 C2.01 8.66 1.02 9.32 0 10 C0 6.7 0 3.4 0 0 Z " fill="#BDCACB" transform="translate(541,31)"/>
<path d="M0 0 C0.99 0 1.98 0 3 0 C1.7508258 3.45925163 0.32472205 6.14693203 -2 9 C-1.51421457 5.87709365 -1.0013988 3.00419641 0 0 Z " fill="#B8C7C8" transform="translate(698,36)"/>
</svg>
